<svg width="558" height="800" viewBox="0 0 558 800" fill="none" xmlns="http://www.w3.org/2000/svg">
<mask id="mask0" mask-type="alpha" maskUnits="userSpaceOnUse" x="0" y="0" width="558" height="800">
<path d="M278.788 800C432.512 800 557.576 674.936 557.576 521.212C557.576 449.04 530.005 383.185 484.849 333.627V206.061C484.849 92.4388 392.41 0 278.788 0C165.166 0 72.7297 92.4388 72.7297 206.061V333.622C27.5709 383.185 0 449.04 0 521.212C0 674.936 125.064 800 278.788 800ZM315.152 533.299V581.818C315.152 601.901 298.87 618.182 278.788 618.182C258.705 618.182 242.424 601.901 242.424 581.818V533.299C227.714 522.233 218.182 504.635 218.182 484.848C218.182 451.43 245.37 424.242 278.788 424.242C312.206 424.242 339.394 451.43 339.394 484.848C339.394 504.635 329.862 522.233 315.152 533.299ZM145.457 206.061C145.457 132.541 205.27 72.7273 278.788 72.7273C352.308 72.7273 412.121 132.541 412.121 206.061V276.434C372.49 254.759 327.055 242.424 278.788 242.424C230.524 242.424 185.089 254.759 145.457 276.432V206.061Z" fill="#95DC83"/>
<rect x="151" y="400" width="256" height="254" rx="127" fill="#95DC83"/>
</mask>
<g mask="url(#mask0)">
<rect x="279" y="-30" width="355" height="859" fill="#91D281"/>
<rect x="-76" y="-59" width="355" height="859" fill="#95DC83"/>
</g>
<path d="M445.834 489.342L394.603 425.767C388.408 418.083 379.594 413.271 369.786 412.217C360.032 411.163 350.216 414.088 342.631 420.184L329.615 430.679C322.351 436.53 317.906 444.588 316.424 453.128H246.83C245.073 453.128 243.347 453.281 241.674 453.563C240.269 444.863 235.785 436.629 228.399 430.679L215.368 420.176C207.798 414.08 198.021 411.163 188.236 412.209C178.413 413.263 169.606 418.075 163.396 425.767L112.188 489.326C105.986 497.011 103.152 506.65 104.221 516.466C105.275 526.289 110.08 535.088 117.772 541.298L130.795 551.793C137.349 557.064 145.575 559.974 153.97 559.974C158.026 559.974 161.983 559.317 165.718 558.065L260.572 633.906C266.66 638.558 274.237 641.125 281.891 641.125C282.914 641.125 283.938 641.079 284.946 640.987C291.79 640.376 298.397 637.748 303.782 633.433L396.459 559.287C398.919 559.798 401.455 560.173 404.029 560.173C404.036 560.173 404.036 560.173 404.036 560.173C412.431 560.173 420.665 557.148 427.211 551.885L440.235 541.336C447.919 535.134 452.739 526.304 453.77 516.489C454.862 506.689 452.036 497.026 445.834 489.342ZM132.361 523.218C129.512 520.919 127.725 517.642 127.335 513.999C126.938 510.355 127.992 506.78 130.283 503.923L181.491 440.372C183.798 437.515 187.067 435.735 190.711 435.33C191.2 435.277 191.696 435.254 192.177 435.254C195.302 435.254 198.365 436.339 200.778 438.287L213.809 448.782C219.699 453.533 220.638 462.187 215.879 468.076L164.664 531.628C160.073 537.334 151.113 538.319 145.385 533.706L132.361 523.218ZM361.819 557.194C359.314 559.203 355.754 559.195 353.256 557.171L298.336 512.692C294.043 509.224 288.681 507.338 283.174 507.368L246.838 507.552C242.301 507.552 238.665 503.763 238.665 499.226V484.705C238.665 480.168 242.308 476.586 246.838 476.586H313.498C315.561 476.586 317.493 477.51 318.792 479.099L369.931 541.871C371.069 543.292 371.619 545.102 371.42 546.905C371.237 548.715 370.313 550.373 368.907 551.518L361.819 557.194ZM430.702 514.006C430.297 517.65 428.525 520.919 425.668 523.218L412.645 533.713C410.178 535.699 407.214 536.746 404.059 536.746C399.866 536.746 395.963 534.874 393.35 531.636L342.142 468.076C337.407 462.187 338.323 453.533 344.22 448.782L357.228 438.294C359.665 436.339 362.72 435.254 365.844 435.254C366.318 435.254 366.83 435.277 367.311 435.33C370.954 435.728 374.216 437.515 376.515 440.364L427.731 503.931C430.045 506.78 431.084 510.355 430.702 514.006Z" fill="white"/>
</svg>
